<svg id="visual" viewBox="0 0 900 600" width="900" height="600" xmlns="http://www.w3.org/2000/svg" xmlns:xlink="http://www.w3.org/1999/xlink" version="1.1"><rect x="0" y="0" width="900" height="600" fill="#002233"></rect><path d="M0 428L21.5 419.8C43 411.7 86 395.3 128.8 402.7C171.7 410 214.3 441 257.2 445.5C300 450 343 428 385.8 427.7C428.7 427.3 471.3 448.7 514.2 446.5C557 444.3 600 418.7 642.8 409C685.7 399.3 728.3 405.7 771.2 414.8C814 424 857 436 878.5 442L900 448L900 601L878.5 601C857 601 814 601 771.2 601C728.3 601 685.7 601 642.8 601C600 601 557 601 514.2 601C471.3 601 428.7 601 385.8 601C343 601 300 601 257.2 601C214.3 601 171.7 601 128.8 601C86 601 43 601 21.5 601L0 601Z" fill="#0066FF" stroke-linecap="round" stroke-linejoin="miter"></path></svg>