<svg id="visual" viewBox="0 0 900 450" width="900" height="450" xmlns="http://www.w3.org/2000/svg" xmlns:xlink="http://www.w3.org/1999/xlink" version="1.1"><path d="M0 118L16.7 125.5C33.3 133 66.7 148 100 148.8C133.3 149.7 166.7 136.3 200 130.3C233.3 124.3 266.7 125.7 300 132.3C333.3 139 366.7 151 400 147.3C433.3 143.7 466.7 124.3 500 122.8C533.3 121.3 566.7 137.7 600 148.2C633.3 158.7 666.7 163.3 700 158.2C733.3 153 766.7 138 800 128.2C833.3 118.3 866.7 113.7 883.3 111.3L900 109L900 0L883.3 0C866.7 0 833.3 0 800 0C766.7 0 733.3 0 700 0C666.7 0 633.3 0 600 0C566.7 0 533.3 0 500 0C466.7 0 433.3 0 400 0C366.7 0 333.3 0 300 0C266.7 0 233.3 0 200 0C166.7 0 133.3 0 100 0C66.7 0 33.3 0 16.7 0L0 0Z" fill="#2aff95"></path><path d="M0 199L16.7 211.8C33.3 224.7 66.7 250.3 100 250.3C133.3 250.3 166.7 224.7 200 217.2C233.3 209.7 266.7 220.3 300 233.8C333.3 247.3 366.7 263.7 400 261.3C433.3 259 466.7 238 500 228.3C533.3 218.7 566.7 220.3 600 227.8C633.3 235.3 666.7 248.7 700 245.7C733.3 242.7 766.7 223.3 800 209.2C833.3 195 866.7 186 883.3 181.5L900 177L900 107L883.3 109.3C866.7 111.7 833.3 116.3 800 126.2C766.7 136 733.3 151 700 156.2C666.7 161.3 633.3 156.7 600 146.2C566.7 135.7 533.3 119.3 500 120.8C466.7 122.3 433.3 141.7 400 145.3C366.7 149 333.3 137 300 130.3C266.7 123.7 233.3 122.3 200 128.3C166.7 134.3 133.3 147.7 100 146.8C66.7 146 33.3 131 16.7 123.5L0 116Z" fill="#7bfdac"></path><path d="M0 240L16.7 252.7C33.3 265.3 66.7 290.7 100 292.8C133.3 295 166.7 274 200 269.5C233.3 265 266.7 277 300 288.3C333.3 299.7 366.7 310.3 400 306.7C433.3 303 466.7 285 500 279.7C533.3 274.3 566.7 281.7 600 287.7C633.3 293.7 666.7 298.3 700 291.7C733.3 285 766.7 267 800 256.5C833.3 246 866.7 243 883.3 241.5L900 240L900 175L883.3 179.5C866.7 184 833.3 193 800 207.2C766.7 221.3 733.3 240.7 700 243.7C666.7 246.7 633.3 233.3 600 225.8C566.7 218.3 533.3 216.7 500 226.3C466.7 236 433.3 257 400 259.3C366.7 261.7 333.3 245.3 300 231.8C266.7 218.3 233.3 207.7 200 215.2C166.7 222.7 133.3 248.3 100 248.3C66.7 248.3 33.3 222.7 16.7 209.8L0 197Z" fill="#a9fac3"></path><path d="M0 330L16.7 337.5C33.3 345 66.7 360 100 353.2C133.3 346.3 166.7 317.7 200 313.8C233.3 310 266.7 331 300 346C333.3 361 366.7 370 400 365.5C433.3 361 466.7 343 500 338.5C533.3 334 566.7 343 600 351.3C633.3 359.7 666.7 367.3 700 365.2C733.3 363 766.7 351 800 337.5C833.3 324 866.7 309 883.3 301.5L900 294L900 238L883.3 239.5C866.7 241 833.3 244 800 254.5C766.7 265 733.3 283 700 289.7C666.7 296.3 633.3 291.7 600 285.7C566.7 279.7 533.3 272.3 500 277.7C466.7 283 433.3 301 400 304.7C366.7 308.3 333.3 297.7 300 286.3C266.7 275 233.3 263 200 267.5C166.7 272 133.3 293 100 290.8C66.7 288.7 33.3 263.3 16.7 250.7L0 238Z" fill="#cff6da"></path><path d="M0 451L16.7 451C33.3 451 66.7 451 100 451C133.3 451 166.7 451 200 451C233.3 451 266.7 451 300 451C333.3 451 366.7 451 400 451C433.3 451 466.7 451 500 451C533.3 451 566.7 451 600 451C633.3 451 666.7 451 700 451C733.3 451 766.7 451 800 451C833.3 451 866.7 451 883.3 451L900 451L900 292L883.3 299.5C866.7 307 833.3 322 800 335.5C766.7 349 733.3 361 700 363.2C666.7 365.3 633.3 357.7 600 349.3C566.7 341 533.3 332 500 336.5C466.7 341 433.3 359 400 363.5C366.7 368 333.3 359 300 344C266.7 329 233.3 308 200 311.8C166.7 315.7 133.3 344.3 100 351.2C66.7 358 33.3 343 16.7 335.5L0 328Z" fill="#f0f0f0"></path></svg>