<svg id="visual" viewBox="0 0 1000 100" width="1000" height="100" xmlns="http://www.w3.org/2000/svg" xmlns:xlink="http://www.w3.org/1999/xlink" version="1.1"><path d="M0 31L7.2 35C14.3 39 28.7 47 43.2 44.7C57.7 42.3 72.3 29.7 86.8 27.5C101.3 25.3 115.7 33.7 130.2 34.7C144.7 35.7 159.3 29.3 173.8 26.7C188.3 24 202.7 25 217.2 22C231.7 19 246.3 12 260.8 9.3C275.3 6.7 289.7 8.3 304.2 11.2C318.7 14 333.3 18 347.8 17.2C362.3 16.3 376.7 10.7 391.2 9.7C405.7 8.7 420.3 12.3 434.8 17C449.3 21.7 463.7 27.3 478.2 28C492.7 28.7 507.3 24.3 521.8 21C536.3 17.7 550.7 15.3 565.2 13.8C579.7 12.3 594.3 11.7 608.8 12.3C623.3 13 637.7 15 652.2 14C666.7 13 681.3 9 695.8 10.3C710.3 11.7 724.7 18.3 739.2 22.7C753.7 27 768.3 29 782.8 26C797.3 23 811.7 15 826.2 16.2C840.7 17.3 855.3 27.7 869.8 34.5C884.3 41.3 898.7 44.7 913.2 43.3C927.7 42 942.3 36 956.8 35.7C971.3 35.3 985.7 40.7 992.8 43.3L1000 46L1000 0L992.8 0C985.7 0 971.3 0 956.8 0C942.3 0 927.7 0 913.2 0C898.7 0 884.3 0 869.8 0C855.3 0 840.7 0 826.2 0C811.7 0 797.3 0 782.8 0C768.3 0 753.7 0 739.2 0C724.7 0 710.3 0 695.8 0C681.3 0 666.7 0 652.2 0C637.7 0 623.3 0 608.8 0C594.3 0 579.7 0 565.2 0C550.7 0 536.3 0 521.8 0C507.3 0 492.7 0 478.2 0C463.7 0 449.3 0 434.8 0C420.3 0 405.7 0 391.2 0C376.7 0 362.3 0 347.8 0C333.3 0 318.7 0 304.2 0C289.7 0 275.3 0 260.8 0C246.3 0 231.7 0 217.2 0C202.7 0 188.3 0 173.8 0C159.3 0 144.7 0 130.2 0C115.7 0 101.3 0 86.8 0C72.3 0 57.7 0 43.2 0C28.7 0 14.3 0 7.2 0L0 0Z" fill="#2aff95"></path><path d="M0 34L7.2 38.2C14.3 42.3 28.7 50.7 43.2 52.2C57.7 53.7 72.3 48.3 86.8 48C101.3 47.7 115.7 52.3 130.2 51.3C144.7 50.3 159.3 43.7 173.8 41.3C188.3 39 202.7 41 217.2 38.8C231.7 36.7 246.3 30.3 260.8 27C275.3 23.7 289.7 23.3 304.2 24.3C318.7 25.3 333.3 27.7 347.8 24.8C362.3 22 376.7 14 391.2 14.7C405.7 15.3 420.3 24.7 434.8 33.8C449.3 43 463.7 52 478.2 50.7C492.7 49.3 507.3 37.7 521.8 33.7C536.3 29.7 550.7 33.3 565.2 33.8C579.7 34.3 594.3 31.7 608.8 32.7C623.3 33.7 637.7 38.3 652.2 37.3C666.7 36.3 681.3 29.7 695.8 28C710.3 26.3 724.7 29.7 739.2 34C753.7 38.3 768.3 43.7 782.8 40.7C797.3 37.7 811.7 26.3 826.2 28.8C840.7 31.3 855.3 47.7 869.8 53.3C884.3 59 898.7 54 913.2 53.7C927.7 53.3 942.3 57.7 956.8 60.7C971.3 63.7 985.7 65.3 992.8 66.2L1000 67L1000 44L992.8 41.3C985.7 38.7 971.3 33.3 956.8 33.7C942.3 34 927.7 40 913.2 41.3C898.7 42.7 884.3 39.3 869.8 32.5C855.3 25.7 840.7 15.3 826.2 14.2C811.7 13 797.3 21 782.8 24C768.3 27 753.7 25 739.2 20.7C724.7 16.3 710.3 9.7 695.8 8.3C681.3 7 666.7 11 652.2 12C637.7 13 623.3 11 608.8 10.3C594.3 9.7 579.7 10.3 565.2 11.8C550.7 13.3 536.3 15.7 521.8 19C507.3 22.3 492.7 26.7 478.2 26C463.7 25.3 449.3 19.7 434.8 15C420.3 10.3 405.7 6.7 391.2 7.7C376.7 8.7 362.3 14.3 347.8 15.2C333.3 16 318.7 12 304.2 9.2C289.7 6.3 275.3 4.7 260.8 7.3C246.3 10 231.7 17 217.2 20C202.7 23 188.3 22 173.8 24.7C159.3 27.3 144.7 33.7 130.2 32.7C115.7 31.7 101.3 23.3 86.8 25.5C72.3 27.7 57.7 40.3 43.2 42.7C28.7 45 14.3 37 7.2 33L0 29Z" fill="#91ffb9"></path><path d="M0 80L7.2 81.2C14.3 82.3 28.7 84.7 43.2 83.8C57.7 83 72.3 79 86.8 79.3C101.3 79.7 115.7 84.3 130.2 87.3C144.7 90.3 159.3 91.7 173.8 88.5C188.3 85.3 202.7 77.7 217.2 77C231.7 76.3 246.3 82.7 260.8 82.7C275.3 82.7 289.7 76.3 304.2 78.3C318.7 80.3 333.3 90.7 347.8 89.2C362.3 87.7 376.7 74.3 391.2 67.7C405.7 61 420.3 61 434.8 63.2C449.3 65.3 463.7 69.7 478.2 74C492.7 78.3 507.3 82.7 521.8 86.2C536.3 89.7 550.7 92.3 565.2 91.8C579.7 91.3 594.3 87.7 608.8 83.3C623.3 79 637.7 74 652.2 71.5C666.7 69 681.3 69 695.8 72.2C710.3 75.3 724.7 81.7 739.2 85.8C753.7 90 768.3 92 782.8 87.8C797.3 83.7 811.7 73.3 826.2 69.8C840.7 66.3 855.3 69.7 869.8 70.3C884.3 71 898.7 69 913.2 68.3C927.7 67.7 942.3 68.3 956.8 71.5C971.3 74.7 985.7 80.3 992.8 83.2L1000 86L1000 65L992.8 64.2C985.7 63.3 971.3 61.7 956.8 58.7C942.3 55.7 927.7 51.3 913.2 51.7C898.7 52 884.3 57 869.8 51.3C855.3 45.7 840.7 29.3 826.2 26.8C811.7 24.3 797.3 35.7 782.8 38.7C768.3 41.7 753.7 36.3 739.2 32C724.7 27.7 710.3 24.3 695.8 26C681.3 27.7 666.7 34.3 652.2 35.3C637.7 36.3 623.3 31.7 608.8 30.7C594.3 29.7 579.7 32.3 565.2 31.8C550.7 31.3 536.3 27.7 521.8 31.7C507.3 35.7 492.7 47.3 478.2 48.7C463.7 50 449.3 41 434.8 31.8C420.3 22.7 405.7 13.3 391.2 12.7C376.7 12 362.3 20 347.8 22.8C333.3 25.7 318.7 23.3 304.2 22.3C289.7 21.3 275.3 21.7 260.8 25C246.3 28.3 231.7 34.7 217.2 36.8C202.7 39 188.3 37 173.8 39.3C159.3 41.7 144.7 48.3 130.2 49.3C115.7 50.3 101.3 45.7 86.8 46C72.3 46.3 57.7 51.7 43.2 50.2C28.7 48.7 14.3 40.3 7.2 36.2L0 32Z" fill="#ccffdc"></path><path d="M0 101L7.2 101C14.3 101 28.7 101 43.2 101C57.7 101 72.3 101 86.8 101C101.3 101 115.7 101 130.2 101C144.7 101 159.3 101 173.8 101C188.3 101 202.7 101 217.2 101C231.7 101 246.3 101 260.8 101C275.3 101 289.7 101 304.2 101C318.7 101 333.3 101 347.8 101C362.3 101 376.7 101 391.2 101C405.7 101 420.3 101 434.8 101C449.3 101 463.7 101 478.2 101C492.7 101 507.3 101 521.8 101C536.3 101 550.7 101 565.2 101C579.7 101 594.3 101 608.8 101C623.3 101 637.7 101 652.2 101C666.7 101 681.3 101 695.8 101C710.3 101 724.7 101 739.2 101C753.7 101 768.3 101 782.8 101C797.3 101 811.7 101 826.2 101C840.7 101 855.3 101 869.8 101C884.3 101 898.7 101 913.2 101C927.7 101 942.3 101 956.8 101C971.3 101 985.7 101 992.8 101L1000 101L1000 84L992.8 81.2C985.7 78.3 971.3 72.7 956.8 69.5C942.3 66.3 927.7 65.7 913.2 66.3C898.7 67 884.3 69 869.8 68.3C855.3 67.7 840.7 64.3 826.2 67.8C811.7 71.3 797.3 81.7 782.8 85.8C768.3 90 753.7 88 739.2 83.8C724.7 79.7 710.3 73.3 695.8 70.2C681.3 67 666.7 67 652.2 69.5C637.7 72 623.3 77 608.8 81.3C594.3 85.7 579.7 89.3 565.2 89.8C550.7 90.3 536.3 87.7 521.8 84.2C507.3 80.7 492.7 76.3 478.2 72C463.7 67.7 449.3 63.3 434.8 61.2C420.3 59 405.7 59 391.2 65.7C376.7 72.3 362.3 85.7 347.8 87.2C333.3 88.7 318.7 78.3 304.2 76.3C289.7 74.3 275.3 80.7 260.8 80.7C246.3 80.7 231.7 74.3 217.2 75C202.7 75.7 188.3 83.3 173.8 86.5C159.3 89.7 144.7 88.3 130.2 85.3C115.7 82.3 101.3 77.7 86.8 77.3C72.3 77 57.7 81 43.2 81.8C28.7 82.7 14.3 80.3 7.2 79.2L0 78Z" fill="#ffffff"></path></svg>